<svg width="19" height="15" viewBox="0 0 19 15" fill="none" xmlns="http://www.w3.org/2000/svg">
<path d="M17.327 2.72464C17.292 2.67775 17.2482 2.6382 17.1979 2.60827C17.1476 2.57834 17.092 2.5586 17.0341 2.55019C16.9762 2.54178 16.9172 2.54486 16.8605 2.55926C16.8038 2.57366 16.7505 2.59909 16.7036 2.6341L9.52069 7.99566C9.49499 8.01493 9.46374 8.02535 9.43163 8.02535C9.39951 8.02535 9.36826 8.01493 9.34256 7.99566L2.30069 2.61035C2.2542 2.57487 2.20117 2.5489 2.14465 2.53391C2.08812 2.51893 2.02919 2.51522 1.97123 2.52301C1.91327 2.5308 1.85741 2.54992 1.80684 2.5793C1.75627 2.60868 1.71199 2.64772 1.67651 2.69421C1.64103 2.74071 1.61506 2.79373 1.60007 2.85026C1.58509 2.90679 1.58138 2.96571 1.58917 3.02367C1.59696 3.08163 1.61609 3.13749 1.64546 3.18806C1.67484 3.23863 1.71389 3.28292 1.76038 3.31839L7.29709 7.55332L1.82124 11.6799C1.77406 11.7151 1.73428 11.7592 1.70416 11.8098C1.67405 11.8603 1.65418 11.9163 1.6457 11.9745C1.63723 12.0328 1.6403 12.0921 1.65476 12.1492C1.66921 12.2062 1.69476 12.2599 1.72995 12.307C1.76513 12.3542 1.80926 12.394 1.85982 12.4241C1.91038 12.4542 1.96638 12.4741 2.02461 12.4826C2.08285 12.491 2.14219 12.488 2.19923 12.4735C2.25628 12.4591 2.30992 12.4335 2.3571 12.3983L8.03186 8.11441L8.80077 8.70816C8.98005 8.8454 9.19916 8.9205 9.42494 8.92211C9.65072 8.92371 9.87087 8.85174 10.0521 8.71707L10.8596 8.11441L16.6012 12.3983C16.648 12.4333 16.7014 12.4587 16.7581 12.4731C16.8148 12.4875 16.8737 12.4906 16.9316 12.4822C16.9895 12.4738 17.0452 12.454 17.0955 12.4241C17.1457 12.3942 17.1896 12.3547 17.2246 12.3078C17.2596 12.2609 17.285 12.2076 17.2994 12.1509C17.3138 12.0942 17.3168 12.0352 17.3084 11.9773C17.3 11.9194 17.2803 11.8637 17.2504 11.8135C17.2205 11.7632 17.1809 11.7193 17.134 11.6843L11.6033 7.55183L17.2365 3.34363C17.3299 3.27307 17.3918 3.16856 17.4087 3.05271C17.4257 2.93687 17.3963 2.81901 17.327 2.72464V2.72464Z" fill="#282828"/>
<path d="M16.7734 0.820312H2.22656C1.63604 0.820312 1.06971 1.0549 0.652145 1.47246C0.234584 1.89002 0 2.45635 0 3.04688L0 11.9531C0 12.5436 0.234584 13.11 0.652145 13.5275C1.06971 13.9451 1.63604 14.1797 2.22656 14.1797H16.7734C17.364 14.1797 17.9303 13.9451 18.3479 13.5275C18.7654 13.11 19 12.5436 19 11.9531V3.04688C19 2.45635 18.7654 1.89002 18.3479 1.47246C17.9303 1.0549 17.364 0.820312 16.7734 0.820312ZM18.1094 11.9531C18.1094 12.3074 17.9686 12.6472 17.7181 12.8978C17.4676 13.1483 17.1278 13.2891 16.7734 13.2891H2.22656C1.87225 13.2891 1.53245 13.1483 1.28191 12.8978C1.03138 12.6472 0.890625 12.3074 0.890625 11.9531V3.04688C0.890625 2.69256 1.03138 2.35276 1.28191 2.10222C1.53245 1.85169 1.87225 1.71094 2.22656 1.71094H16.7734C17.1278 1.71094 17.4676 1.85169 17.7181 2.10222C17.9686 2.35276 18.1094 2.69256 18.1094 3.04688V11.9531Z" fill="#282828" stroke="#282828" stroke-width="0.5"/>
</svg>
