<svg width="15" height="28" viewBox="0 0 15 28" fill="none" xmlns="http://www.w3.org/2000/svg">
<path d="M13.3717 9.72395C13.3838 9.60604 13.2913 9.50354 13.1728 9.50354H9.34887V6.8503C9.34887 5.85389 10.0093 5.62158 10.4744 5.62158C10.8568 5.62158 12.5469 5.62158 13.1304 5.62158C13.2408 5.62158 13.3293 5.53204 13.3293 5.42158V1.44037C13.3293 1.33021 13.2402 1.2408 13.13 1.24037L9.39755 1.2258C5.03299 1.2258 4.03975 4.49287 4.03975 6.5836V9.50354H1.71562C1.60517 9.50354 1.51562 9.59309 1.51562 9.70354V13.8173C1.51562 13.9278 1.60517 14.0173 1.71563 14.0173H4.03975C4.03975 19.2364 4.03975 25.4188 4.03975 26.5923C4.03975 26.7028 4.12929 26.7898 4.23975 26.7898H9.14887C9.25933 26.7898 9.34887 26.7026 9.34887 26.5922C9.34887 25.4125 9.34887 19.1768 9.34887 14.0173H12.7508C12.8533 14.0173 12.9393 13.9398 12.9497 13.8377L13.3717 9.72395Z" stroke="white" stroke-width="2"/>
</svg>
