<svg width="27" height="18" viewBox="0 0 27 18" fill="none" xmlns="http://www.w3.org/2000/svg">
<path d="M25.8898 14C24.7063 12.137 23.3213 10.4099 21.7598 8.85C21.7314 8.81452 21.7159 8.77044 21.7159 8.725C21.7159 8.67956 21.7314 8.63547 21.7598 8.6C23.1035 6.76599 24.291 4.82251 25.3098 2.79C25.4572 2.49916 25.5272 2.17528 25.5132 1.84953C25.4992 1.52378 25.4016 1.20711 25.2298 0.929998C25.0731 0.648345 24.844 0.413645 24.5663 0.25015C24.2885 0.0866553 23.9721 0.000296159 23.6498 -2.42495e-06H20.6498C20.2691 0.0073844 19.8984 0.12329 19.5814 0.334091C19.2643 0.544891 19.0139 0.841827 18.8598 1.19C17.9884 3.11716 16.9441 4.96137 15.7398 6.7V1.8C15.7411 1.56325 15.6955 1.32859 15.6055 1.1096C15.5155 0.890617 15.383 0.691659 15.2156 0.524249C15.0481 0.356838 14.8492 0.224302 14.6302 0.134313C14.4112 0.0443243 14.1766 -0.00132879 13.9398 -2.42495e-06H9.5598C9.30482 0.003962 9.05577 0.077496 8.83952 0.212661C8.62328 0.347826 8.44806 0.539488 8.33278 0.766958C8.2175 0.994427 8.16654 1.24906 8.1854 1.50338C8.20427 1.75769 8.29223 2.00202 8.4398 2.21L8.8398 2.77C9.05436 3.07813 9.16951 3.44453 9.1698 3.82V7.66C7.84974 5.70714 6.80021 3.58452 6.0498 1.35C5.91449 0.956242 5.65966 0.614534 5.32085 0.37253C4.98205 0.130527 4.57616 0.000294898 4.1598 -2.42495e-06H1.7098C1.44949 0.00311016 1.19323 0.0649334 0.96013 0.180859C0.72703 0.296785 0.523098 0.463823 0.363534 0.669527C0.20397 0.87523 0.0928885 1.11429 0.0385676 1.3689C-0.0157532 1.6235 -0.0119123 1.88708 0.0498043 2.14C1.3998 7.87 4.2298 12.62 7.8198 15.14C8.03496 15.2928 8.30181 15.3544 8.56219 15.3114C8.82256 15.2683 9.05535 15.124 9.2098 14.91C9.28704 14.8031 9.34238 14.682 9.37263 14.5537C9.40289 14.4253 9.40745 14.2923 9.38608 14.1621C9.3647 14.032 9.3178 13.9074 9.24807 13.7955C9.17835 13.6836 9.08718 13.5865 8.9798 13.51C5.8398 11.31 3.3398 7.12 2.0698 2H4.1698C5.09004 4.79589 6.47623 7.41613 8.2698 9.75C8.4771 10.0149 8.7626 10.2077 9.08573 10.301C9.40886 10.3944 9.75319 10.3835 10.0698 10.27C10.3947 10.1567 10.6757 9.94421 10.8731 9.66245C11.0705 9.3807 11.1743 9.044 11.1698 8.7V3.82C11.1719 3.1843 11.0137 2.55833 10.7098 2H13.7098V7.43C13.7062 7.81854 13.8306 8.19746 14.0637 8.5083C14.2969 8.81915 14.6258 9.04464 14.9998 9.15C15.3627 9.27076 15.7552 9.26861 16.1167 9.14388C16.4782 9.01916 16.7886 8.77881 16.9998 8.46C18.4202 6.4336 19.633 4.26936 20.6198 2H23.4198C22.4667 3.87407 21.3666 5.66969 20.1298 7.37C19.8179 7.78719 19.6666 8.30264 19.7033 8.82221C19.74 9.34178 19.9624 9.83081 20.3298 10.2C21.7883 11.6697 23.1011 13.2772 24.2498 15H20.8998C19.8663 13.2893 18.4786 11.8197 16.8298 10.69C16.5824 10.5087 16.2892 10.4005 15.9834 10.3775C15.6776 10.3545 15.3715 10.4178 15.0998 10.56C14.8205 10.703 14.5864 10.9209 14.4239 11.1893C14.2614 11.4578 14.1769 11.7662 14.1798 12.08V14.46C14.1853 14.5989 14.1359 14.7345 14.0424 14.8373C13.9489 14.9402 13.8186 15.0022 13.6798 15.01H12.8198C12.5546 15.01 12.3002 15.1154 12.1127 15.3029C11.9252 15.4904 11.8198 15.7448 11.8198 16.01C11.8198 16.2752 11.9252 16.5296 12.1127 16.7171C12.3002 16.9046 12.5546 17.01 12.8198 17.01H13.6798C14.0116 17.0074 14.3396 16.9393 14.645 16.8096C14.9504 16.6799 15.2272 16.4912 15.4594 16.2543C15.6917 16.0173 15.8749 15.7369 15.9986 15.429C16.1222 15.1211 16.1838 14.7918 16.1798 14.46V12.69C17.3827 13.5948 18.4011 14.7218 19.1798 16.01C19.3517 16.3079 19.5976 16.5565 19.8936 16.7317C20.1897 16.9069 20.5259 17.0027 20.8698 17.01H24.2498C24.5954 17.0109 24.9349 16.9184 25.2323 16.7424C25.5298 16.5664 25.7742 16.3134 25.9398 16.01C26.1097 15.7004 26.1945 15.3513 26.1857 14.9983C26.177 14.6452 26.0749 14.3008 25.8898 14Z" fill="white"/>
</svg>
