<svg width="23" height="16" viewBox="0 0 23 16" fill="none" xmlns="http://www.w3.org/2000/svg">
<path d="M15.8123 9.41666C14.3748 9.41666 13.2248 9.79999 12.3623 10.2792C13.704 11.4292 14.279 12.7708 14.3748 12.8667L14.4706 13.0583V15.1667H22.1373V13.25C22.0415 13.25 20.5081 9.41666 15.8123 9.41666Z" fill="#0499DD"/>
<path d="M15.8122 7.49999C17.6646 7.49999 19.1663 5.99828 19.1663 4.14582C19.1663 2.29337 17.6646 0.791656 15.8122 0.791656C13.9597 0.791656 12.458 2.29337 12.458 4.14582C12.458 5.99828 13.9597 7.49999 15.8122 7.49999Z" fill="#0499DD"/>
<path d="M3.83301 4.14582C3.83301 2.32499 5.36634 0.791656 7.18718 0.791656C9.00801 0.791656 10.5413 2.32499 10.5413 4.14582C10.5413 5.96666 9.00801 7.49999 7.18718 7.49999C5.36634 7.49999 3.83301 5.96666 3.83301 4.14582ZM7.18718 9.41666C2.49134 9.41666 0.958008 13.25 0.958008 13.25V15.1667H13.4163V13.25C13.4163 13.25 11.883 9.41666 7.18718 9.41666Z" fill="#0499DD"/>
</svg>
